<?xml version="1.0" standalone="no"?>
<!DOCTYPE svg PUBLIC "-//W3C//DTD SVG 20010904//EN"
 "http://www.w3.org/TR/2001/REC-SVG-20010904/DTD/svg10.dtd">
<svg version="1.0" xmlns="http://www.w3.org/2000/svg"
 width="1080.000000pt" height="720.000000pt" viewBox="0 0 1080.000000 720.000000"
 preserveAspectRatio="xMidYMid meet">

<g transform="translate(0.000000,720.000000) scale(0.100000,-0.100000)"
fill="#000000" stroke="none">
<path d="M0 3600 l0 -3600 5400 0 5400 0 0 3600 0 3600 -5400 0 -5400 0 0
-3600z m6340 3294 c11 -12 10 -18 -3 -32 -16 -15 -18 -15 -34 0 -13 14 -14 20
-3 32 7 9 16 16 20 16 4 0 13 -7 20 -16z m-3270 -409 c10 -12 10 -18 0 -30
-24 -29 -58 -7 -44 30 4 8 12 15 19 15 7 0 18 -7 25 -15z m4675 -109 c12 5 16
4 12 -3 -5 -7 9 -14 35 -18 68 -11 196 -54 286 -96 l84 -38 86 25 c177 51 357
41 500 -28 102 -49 208 -160 264 -276 42 -87 44 -90 108 -123 39 -20 93 -61
136 -103 117 -116 166 -240 168 -421 l1 -100 47 -58 c108 -133 157 -248 165
-387 6 -109 -14 -196 -70 -304 -23 -44 -42 -93 -43 -108 0 -15 -3 -30 -7 -34
-3 -4 -2 -14 3 -23 7 -14 3 -17 -18 -16 -15 0 -30 4 -34 9 -3 5 -34 -14 -67
-43 l-61 -53 0 -75 c0 -134 -38 -256 -114 -361 -75 -105 -258 -246 -366 -281
-64 -20 -186 -31 -264 -22 -69 8 -84 6 -164 -19 -177 -57 -412 -75 -602 -44
-90 14 -103 14 -162 -2 -34 -9 -112 -19 -172 -23 l-109 -6 82 -45 c76 -42 84
-49 121 -115 39 -70 40 -70 162 -139 188 -106 195 -110 176 -114 -10 -2 -50
16 -90 40 -40 25 -107 64 -149 88 -70 40 -80 50 -115 114 -37 66 -44 73 -134
126 -52 31 -127 66 -166 78 -129 39 -258 147 -327 273 -30 56 -38 63 -122 107
-237 123 -363 359 -327 612 9 61 8 68 -20 123 -25 51 -32 57 -51 51 -19 -6
-20 -5 -8 9 11 14 11 18 -4 23 -16 6 -16 8 -1 16 14 8 15 13 5 24 -9 12 -9 13
2 9 12 -4 14 20 13 142 0 82 -6 172 -12 202 -16 75 -15 214 3 290 30 128 124
260 239 337 57 39 172 89 251 110 39 10 72 20 75 23 3 3 14 6 25 6 16 0 21 12
32 65 62 308 245 510 503 556 47 8 102 15 123 16 20 0 37 5 37 12 0 7 3 6 8
-2 5 -8 16 -10 27 -6z m-2079 -691 c7 -18 -13 -45 -33 -45 -17 0 -27 24 -19
45 7 20 45 19 52 0z m648 -394 c-1 -14 -3 -31 -3 -38 -1 -7 -8 -10 -16 -7 -9
4 -15 0 -15 -7 0 -12 -2 -12 -9 0 -5 7 -14 11 -19 7 -7 -4 -10 6 -9 26 2 34
11 42 49 44 20 1 23 -3 22 -25z m-1699 -71 c0 -18 -6 -26 -23 -28 -13 -2 -25
3 -28 12 -10 26 4 48 28 44 17 -2 23 -10 23 -28z m1425 -175 c0 -8 -7 -15 -15
-15 -8 0 -15 7 -15 15 0 8 7 15 15 15 8 0 15 -7 15 -15z m-195 -324 c7 -12
-12 -24 -25 -16 -11 7 -4 25 10 25 5 0 11 -4 15 -9z m293 -153 c-7 -19 -38
-22 -38 -4 0 10 9 16 21 16 12 0 19 -5 17 -12z m-5243 -99 c87 -24 135 -86
135 -174 0 -49 -10 -77 -42 -111 -19 -21 -19 -21 16 -42 46 -27 68 -63 74
-122 6 -62 -23 -125 -75 -160 -35 -24 -43 -25 -225 -28 l-188 -3 0 325 0 326
133 0 c72 0 150 -5 172 -11z m403 -316 l2 -323 -70 0 -70 0 0 325 0 326 68 -3
67 -3 3 -322z m595 300 l47 -22 0 -76 0 -76 -33 25 c-116 89 -289 70 -352 -38
-88 -150 12 -326 185 -326 75 0 80 5 80 76 l0 64 -60 0 -60 0 0 60 0 60 120 0
120 0 0 -166 0 -165 -53 -24 c-68 -32 -148 -40 -222 -25 -110 23 -182 73 -230
162 -25 45 -30 67 -33 144 -3 68 0 105 13 143 23 70 94 147 170 183 56 27 67
29 160 26 77 -3 111 -8 148 -25z m650 12 c97 -25 170 -84 219 -178 33 -62 33
-203 0 -270 -31 -61 -98 -128 -159 -158 -43 -21 -65 -24 -200 -27 l-153 -4 0
326 0 326 118 0 c72 0 140 -6 175 -15z m778 -305 c71 -173 129 -319 129 -323
0 -4 -32 -7 -71 -5 l-72 3 -20 58 -21 57 -147 0 -147 0 -24 -60 -23 -60 -73 0
-72 0 13 33 c7 17 67 164 132 325 l119 293 74 -3 75 -3 128 -315z m557 258 l3
-58 -86 0 -85 0 0 -265 0 -265 -65 0 -65 0 0 265 0 265 -85 0 -85 0 0 60 0 60
233 -2 232 -3 3 -57z m493 -258 c71 -173 129 -319 129 -323 0 -4 -32 -7 -71
-5 l-72 3 -20 58 -21 57 -149 -2 -150 -3 -20 -57 -21 -58 -73 0 -73 0 13 33
c7 17 67 164 132 325 l119 293 74 -3 75 -3 128 -315z m1669 -75 c0 -8 -6 -15
-14 -15 -17 0 -28 14 -19 24 12 12 33 6 33 -9z m3917 -32 c6 4 10 -10 10 -32
0 -29 -4 -38 -14 -34 -7 3 -13 -1 -13 -8 0 -12 -2 -12 -9 0 -5 8 -16 11 -26 7
-13 -5 -15 -3 -8 6 5 7 8 25 7 40 -2 20 1 25 12 21 8 -3 14 1 14 8 0 12 2 12
9 0 5 -7 13 -11 18 -8z m103 -424 c0 -12 -29 -24 -37 -16 -3 4 -3 13 0 21 6
16 37 11 37 -5z m-836 -104 c6 -16 -37 -40 -54 -30 -7 4 -176 -90 -370 -207
-41 -25 -142 -85 -225 -133 -82 -48 -198 -117 -256 -152 -60 -36 -115 -63
-125 -61 -15 3 -8 10 26 30 25 14 189 108 365 208 504 288 552 317 558 340 4
15 13 20 40 20 22 0 37 -6 41 -15z m-2225 -8 c6 -8 9 -16 6 -19 -3 -2 96 -62
219 -133 l224 -128 40 -71 41 -71 170 -95 c94 -52 171 -98 171 -101 0 -16 -52
-18 -80 -4 -17 9 -30 18 -30 21 0 2 13 -2 30 -11 56 -29 55 -15 -2 18 -263
150 -272 156 -316 232 -48 82 -43 78 -293 223 -113 66 -186 102 -205 102 -38
0 -58 14 -51 34 8 20 60 21 76 3z m2527 -19 c9 -15 -26 -40 -49 -34 -12 3 -88
-36 -200 -101 l-182 -107 -185 -36 -185 -36 -239 -142 c-154 -92 -242 -140
-249 -133 -6 6 -3 13 9 20 11 6 121 70 247 141 l228 129 181 32 c172 32 185
36 267 82 210 120 271 159 271 171 0 8 6 17 13 19 23 10 66 7 73 -5z m-8609
-41 c86 -46 118 -157 69 -241 -37 -63 -88 -86 -194 -86 l-82 0 0 -120 0 -120
-60 0 -60 0 0 296 0 296 148 -4 c115 -3 154 -7 179 -21z m2587 2 c32 -25 35
-68 6 -94 -41 -37 -110 -9 -110 44 0 31 8 44 35 59 28 16 39 15 69 -9z m6286
-83 c0 -21 -21 -31 -30 -15 -5 7 -6 17 -4 21 9 14 34 9 34 -6z m395 -26 c-5
-8 -11 -8 -17 -2 -6 6 -7 16 -3 22 5 8 11 8 17 2 6 -6 7 -16 3 -22z m-769 -1
c9 -16 -10 -31 -43 -33 -15 -1 -77 -29 -137 -64 -60 -34 -110 -61 -112 -59 -2
2 46 32 106 67 60 35 106 68 103 73 -3 5 1 13 8 18 20 12 67 11 75 -2z m-8060
-74 l36 -15 -25 -42 c-15 -24 -32 -41 -39 -39 -32 10 -90 2 -108 -14 -28 -25
-41 -84 -40 -173 1 -43 1 -83 1 -89 -1 -9 -19 -13 -56 -13 l-55 0 0 196 0 195
52 -3 c46 -3 53 -6 58 -28 4 -19 7 -21 12 -9 8 20 66 48 101 49 15 0 44 -7 63
-15z m350 -21 c53 -33 84 -83 91 -148 23 -196 -227 -304 -361 -156 -71 79 -73
187 -3 267 70 79 181 95 273 37z m403 25 c29 -10 31 -14 31 -61 0 -44 -2 -49
-17 -43 -10 4 -36 9 -59 12 -32 4 -46 1 -68 -18 -51 -45 -42 -149 16 -180 20
-11 75 -8 111 6 15 6 17 1 17 -43 0 -47 -2 -51 -31 -61 -76 -26 -171 -2 -221
57 -58 69 -58 205 0 274 50 59 145 83 221 57z m342 1 c67 -19 119 -99 119
-185 l0 -45 -135 0 c-74 0 -135 -2 -135 -5 0 -2 5 -15 11 -29 23 -50 99 -58
146 -14 22 21 23 21 63 3 22 -10 40 -22 40 -28 0 -20 -68 -75 -105 -86 -167
-46 -301 73 -267 237 26 125 135 188 263 152z m437 -5 c28 -9 53 -19 56 -24 3
-4 -7 -24 -21 -44 -25 -36 -26 -36 -55 -21 -17 9 -48 14 -76 12 -39 -2 -47 -6
-47 -22 0 -15 16 -25 72 -43 97 -33 133 -67 133 -126 0 -103 -103 -150 -258
-116 -87 18 -98 40 -53 99 15 18 22 21 33 13 21 -18 105 -36 133 -29 20 5 26
12 23 29 -2 18 -18 27 -83 49 -90 30 -125 61 -125 111 0 32 20 71 50 94 41 34
138 41 218 18z m390 0 c28 -9 53 -19 56 -24 3 -4 -7 -24 -21 -44 -25 -36 -26
-36 -55 -21 -17 9 -48 14 -76 12 -39 -2 -47 -6 -47 -22 0 -15 16 -25 72 -43
97 -33 133 -67 133 -126 0 -82 -61 -127 -170 -127 -57 1 -128 17 -157 36 l-23
14 26 40 c27 40 38 48 48 31 9 -14 104 -34 132 -27 19 5 25 12 22 29 -2 18
-18 27 -83 49 -90 30 -125 61 -125 111 0 32 20 71 50 94 41 34 138 41 218 18z
m635 1 c18 -7 45 -28 60 -45 27 -32 27 -34 27 -187 l0 -154 -54 0 -54 0 -4
130 c-2 106 -6 132 -20 147 -25 25 -83 22 -111 -5 -20 -20 -22 -34 -25 -147
l-4 -125 -53 0 c-29 0 -55 4 -57 10 -1 5 -2 93 0 195 l3 185 50 0 c43 0 52 -3
56 -20 5 -19 7 -19 22 -6 40 36 109 45 164 22z m419 -5 c30 -15 38 -16 42 -5
4 9 22 14 56 14 l50 0 0 -220 c0 -246 -4 -265 -63 -317 -60 -52 -148 -65 -230
-34 -24 10 -27 15 -27 61 0 27 1 50 3 50 1 0 20 -7 42 -15 90 -32 155 -4 155
69 l0 35 -35 -15 c-187 -78 -337 174 -199 335 52 61 137 78 206 42z m-812
-186 l0 -195 -60 0 -60 0 0 195 0 195 60 0 60 0 0 -195z m3577 171 c17 -23 58
-48 313 -191 58 -32 147 -83 199 -113 51 -29 100 -51 108 -48 8 3 11 2 8 -4
-3 -5 9 -17 26 -26 26 -13 33 -14 40 -2 10 15 12 7 3 -16 -3 -9 -12 -16 -20
-16 -8 0 -33 -13 -56 -30 -22 -16 -45 -30 -50 -30 -8 0 -100 -54 -267 -157
-20 -13 -58 -34 -86 -49 -27 -14 -62 -36 -77 -47 l-28 -21 -22 21 c-13 11
-102 65 -198 121 -96 55 -208 119 -249 143 -41 23 -90 45 -110 49 -41 6 -54
34 -22 45 29 9 61 -3 61 -23 0 -12 36 -38 103 -77 56 -32 167 -97 246 -143
185 -108 174 -104 157 -48 -8 25 -10 46 -5 46 5 0 9 -6 9 -14 0 -8 3 -17 8
-19 4 -3 7 5 7 18 0 13 -3 21 -7 18 -5 -2 -8 6 -8 17 0 17 4 21 17 16 17 -7
83 22 83 36 0 5 7 8 15 8 9 0 26 6 38 14 12 8 40 17 62 21 50 9 98 33 90 45
-4 6 3 10 14 10 13 0 21 -7 21 -17 0 -14 2 -15 9 -5 5 9 17 11 34 6 17 -4 27
-2 27 5 0 6 -7 8 -17 4 -10 -4 -14 -2 -9 5 3 6 -2 16 -11 22 -10 6 -11 9 -3 6
8 -3 23 -9 33 -12 9 -4 17 -11 17 -16 0 -5 5 -6 11 -2 6 3 -5 16 -28 30 -36
22 -47 23 -209 24 l-170 0 -60 36 c-181 111 -321 188 -343 190 -14 1 -32 2
-38 3 -7 0 -13 10 -13 21 0 16 7 20 36 20 26 0 37 -5 41 -18 4 -17 107 -82
258 -162 33 -18 74 -41 92 -52 27 -16 49 -18 178 -16 l146 3 -228 129 c-125
71 -239 137 -254 147 -14 10 -42 19 -64 21 -44 4 -56 21 -24 38 25 14 69 -1
69 -22 0 -7 19 -24 43 -36 218 -121 589 -322 593 -322 3 0 2 5 -2 12 -4 7 -3
8 5 4 6 -4 9 -11 7 -15 -3 -4 4 -12 14 -19 16 -10 21 -9 30 8 6 11 15 20 21
20 6 0 7 -4 4 -10 -3 -6 1 -7 9 -4 21 8 20 9 -9 28 -14 9 -30 14 -36 10 -8 -4
-7 -9 2 -15 8 -5 10 -9 4 -9 -5 0 -16 4 -23 9 -11 6 -10 10 4 15 18 7 -6 24
-156 111 -30 17 -138 81 -240 141 -123 72 -193 108 -210 106 -33 -3 -55 12
-47 32 10 25 62 20 84 -8z m1539 -1 c19 -15 19 -15 0 -30 -11 -8 -32 -15 -46
-15 -15 0 -83 -35 -161 -81 -183 -111 -277 -161 -291 -157 -9 3 80 57 395 237
15 8 27 21 27 28 0 12 27 32 46 33 5 0 19 -7 30 -15z m404 -81 c-41 -8 -127
-22 -190 -33 l-115 -19 -159 -96 c-87 -53 -162 -96 -165 -96 -3 0 -24 -14 -45
-30 -33 -25 -36 -30 -18 -30 11 0 24 -4 27 -10 3 -5 11 -10 18 -10 6 0 2 7 -9
15 -17 13 -15 14 30 8 36 -4 47 -3 42 5 -5 8 -2 10 9 6 9 -4 14 -12 12 -18 -3
-7 3 -12 12 -13 71 -5 150 -15 183 -23 21 -6 42 -8 47 -6 5 3 11 -1 14 -9 5
-11 27 -3 99 37 51 28 114 63 140 77 29 16 48 33 48 43 0 10 10 20 24 24 25 6
66 -10 66 -25 0 -10 -25 -21 -48 -21 -8 0 -62 -28 -120 -62 -80 -47 -100 -63
-88 -70 19 -11 61 11 61 32 0 8 13 19 28 24 34 12 62 -2 62 -30 0 -14 -8 -20
-33 -22 -19 -2 -55 -17 -80 -34 -26 -16 -37 -27 -24 -23 13 4 22 2 22 -4 0 -6
-7 -11 -17 -11 -9 0 -13 -3 -9 -7 7 -7 118 46 124 60 2 4 10 7 18 7 28 0 262
142 267 162 4 15 13 19 39 16 46 -4 44 -31 -3 -39 -43 -6 -261 -131 -302 -171
-16 -16 -25 -33 -21 -39 4 -8 3 -9 -5 -5 -6 4 -9 12 -6 17 9 14 -5 11 -20 -5
-12 -12 -11 -15 9 -20 l24 -6 -19 -82 c-10 -46 -24 -101 -31 -123 -14 -47 -15
-52 -17 -65 0 -5 -8 -7 -16 -4 -8 4 -12 10 -9 15 3 5 -3 6 -12 2 -14 -5 -12
-8 10 -20 22 -12 30 -12 53 1 24 12 31 12 55 0 16 -8 28 -18 28 -22 0 -9 -104
-72 -119 -72 -27 0 -7 -37 32 -59 130 -73 237 -137 237 -143 0 -3 -26 -21 -57
-38 -32 -18 -152 -88 -268 -155 -497 -291 -622 -363 -655 -380 -19 -10 -37
-21 -40 -24 -3 -3 -23 -16 -45 -28 l-41 -22 -109 63 c-61 35 -180 104 -265
153 -85 50 -200 117 -255 148 -55 32 -152 88 -215 125 -63 37 -150 87 -192
111 -43 24 -77 46 -78 49 0 3 63 41 140 85 82 47 140 86 140 95 0 8 -25 29
-56 45 -77 41 -82 50 -44 70 20 10 36 13 43 7 7 -5 25 -12 40 -16 22 -5 27 -4
21 6 -6 11 -5 11 8 0 8 -7 22 -10 31 -6 8 3 18 1 22 -5 3 -6 11 -11 18 -11 6
0 -5 11 -26 25 -31 21 -41 24 -59 15 -21 -10 -21 -10 -5 3 9 8 17 24 17 36 0
15 11 27 35 38 33 16 37 16 71 0 19 -10 40 -14 46 -11 6 4 8 3 5 -2 -3 -6 3
-15 14 -22 12 -8 19 -8 19 -2 0 7 6 8 19 0 44 -23 32 -8 -17 22 -42 26 -52 38
-52 60 0 23 6 29 39 39 37 11 43 10 96 -20 42 -24 60 -29 70 -21 7 6 20 8 29
4 32 -12 15 5 -34 35 -60 37 -64 60 -15 87 l36 19 68 -37 c54 -30 70 -35 82
-25 7 7 5 2 -5 -10 -20 -24 -7 -26 33 -4 24 13 24 14 -37 48 -74 41 -82 70
-29 95 31 15 34 15 100 -19 37 -20 67 -42 67 -49 0 -8 2 -14 5 -14 12 0 65 31
65 38 0 4 -27 23 -60 41 -71 41 -77 63 -24 88 35 17 36 17 100 -17 35 -19 64
-42 64 -50 0 -10 11 -15 30 -16 21 -1 30 4 30 15 0 9 26 30 61 50 l61 33 39
-18 c56 -25 50 -44 -27 -89 l-66 -39 39 -23 c35 -21 38 -22 41 -5 2 11 29 33
67 53 63 33 63 34 99 16 52 -24 47 -48 -19 -88 -30 -19 -55 -37 -55 -41 0 -4
10 -13 22 -19 17 -9 24 -9 32 3 6 8 39 29 73 47 l62 33 33 -19 c18 -10 34 -27
36 -36 3 -16 -19 -47 -35 -49 -4 0 -17 -7 -28 -15 -20 -14 -19 -15 3 -8 12 4
22 3 21 -2 -4 -23 6 -22 57 7 52 31 62 32 109 15 28 -10 -59 48 -120 79 -16 9
-68 41 -115 71 -47 30 -110 67 -140 82 -30 15 -56 28 -58 29 -9 5 23 41 33 38
6 -3 40 13 75 34 36 21 126 73 202 116 l136 76 159 24 c170 26 266 32 143 10z
m-1276 -30 c6 -12 28 -31 50 -43 62 -31 194 -106 201 -113 3 -3 2 -9 -3 -12
-5 -3 -65 28 -135 68 -70 41 -137 74 -152 74 -32 0 -50 15 -41 37 9 24 68 16
80 -11z m2490 -79 c3 -9 -1 -18 -10 -22 -19 -7 -28 2 -21 22 8 19 23 19 31 0z
m-4490 -81 c9 -3 16 -14 16 -23 0 -11 60 -52 179 -120 l179 -105 60 -105 59
-106 241 -140 c133 -76 240 -141 238 -143 -3 -2 -115 60 -250 138 l-245 141
-58 105 -58 105 -181 105 c-100 57 -192 104 -206 104 -33 0 -58 27 -37 41 16
10 41 11 63 3z m251 -60 c9 -4 20 -16 25 -28 4 -12 51 -45 114 -81 l106 -60
47 -108 48 -108 95 -57 c52 -31 149 -87 215 -125 66 -37 125 -73 130 -79 13
-14 29 -23 -231 125 l-220 126 -50 110 -49 109 -114 66 c-66 38 -126 66 -142
66 -33 0 -45 15 -29 35 13 16 29 19 55 9z m2402 -21 c-9 -2 -15 -9 -12 -14 3
-5 -1 -6 -10 -2 -13 5 -14 7 -3 14 7 5 20 8 28 8 11 -1 10 -3 -3 -6z m1359
-15 c9 -13 -23 -38 -49 -38 -10 0 -104 -48 -208 -107 l-190 -108 7 -85 c3 -47
8 -87 9 -88 2 -2 118 65 259 148 180 107 253 156 249 166 -7 20 42 37 68 23
28 -15 18 -33 -22 -40 -33 -6 -114 -52 -498 -283 -107 -64 -198 -115 -202
-114 -5 2 23 21 61 43 l69 40 -5 47 c-2 27 -6 69 -8 96 l-4 47 192 110 c105
61 191 115 191 120 1 32 64 51 81 23z m-4047 -101 c5 -12 67 -55 152 -104 79
-46 294 -170 476 -275 183 -105 331 -194 329 -196 -4 -3 -286 157 -799 455
-98 57 -182 101 -187 98 -12 -7 -60 13 -60 25 0 14 40 28 63 22 10 -3 22 -14
26 -25z m4730 4 c21 -14 -4 -41 -38 -41 -15 0 -115 -52 -241 -125 -118 -69
-219 -125 -225 -125 -10 0 18 17 298 180 70 41 127 79 127 85 0 30 48 45 79
26z m-1539 -11 c0 -5 -4 -10 -10 -10 -5 0 -10 5 -10 10 0 6 5 10 10 10 6 0 10
-4 10 -10z m1108 -42 c16 -16 -4 -38 -35 -38 -14 0 -84 -34 -157 -77 -72 -42
-183 -106 -246 -143 -63 -37 -155 -90 -203 -119 -49 -28 -94 -51 -100 -51 -10
0 188 117 557 328 54 32 101 64 104 72 14 40 54 54 80 28z m-3360 -19 c5 -12
89 -67 222 -146 118 -69 206 -122 195 -119 -10 4 -112 60 -225 126 -114 65
-213 118 -221 118 -37 -2 -49 3 -49 22 0 29 67 29 78 -1z m214 -52 c4 -6 5
-14 3 -17 -2 -3 59 -41 135 -85 77 -43 137 -81 135 -83 -2 -2 -67 33 -145 77
-87 50 -152 81 -170 81 -36 0 -49 19 -25 37 20 14 55 8 67 -10z m3497 4 c24
-15 5 -41 -31 -41 -18 0 -49 -10 -68 -22 -211 -129 -294 -169 -387 -188 -52
-11 -103 -20 -112 -19 -9 1 34 11 94 24 103 22 121 30 272 117 89 51 162 98
163 105 0 12 28 32 45 33 6 0 16 -4 24 -9z m-1779 -67 c0 -2 -8 -8 -18 -13
-14 -7 -18 -6 -18 8 0 12 6 17 18 13 10 -2 18 -6 18 -8z m1333 -111 c-7 -2
-19 -2 -25 0 -7 3 -2 5 12 5 14 0 19 -2 13 -5z m-138 -27 c-84 -18 -116 -32
-200 -82 -148 -89 -216 -127 -220 -122 -2 2 71 47 163 100 131 75 183 99 237
111 39 8 81 15 95 15 14 0 -20 -10 -75 -22z m-3590 -13 c6 -13 89 -67 224
-145 118 -68 207 -124 198 -126 -18 -4 -33 -43 -24 -64 3 -9 -8 -13 -34 -14
-25 0 -36 3 -31 10 9 15 9 39 0 52 -5 7 4 9 27 8 81 -7 50 16 -280 204 -50 29
-102 52 -117 52 -36 0 -55 25 -31 39 27 16 57 9 68 -16z m4011 -33 c0 -13 -7
-20 -18 -20 -22 0 -22 4 -2 24 20 20 20 20 20 -4z m-476 -33 c-14 -8 -85 -48
-159 -90 -74 -43 -135 -76 -137 -74 -6 6 290 176 306 177 8 0 4 -6 -10 -13z
m-2655 -49 c56 -33 56 -33 34 -50 -29 -25 -40 -23 -104 16 l-57 34 23 16 c32
22 39 21 104 -16z m2074 13 l23 -18 -51 -31 c-28 -18 -58 -32 -66 -32 -18 0
-65 21 -65 29 0 8 112 70 125 70 6 0 21 -8 34 -18z m678 -7 c7 -19 -13 -34
-46 -34 -13 0 -70 -26 -125 -59 -121 -70 -146 -83 -146 -77 0 2 52 35 116 72
76 44 119 75 125 90 6 18 16 24 39 24 19 0 33 -6 37 -16z m-2864 -119 c16 -11
16 -13 -7 -29 -14 -9 -30 -16 -35 -16 -12 0 -121 63 -121 70 0 3 12 12 28 21
26 15 29 14 72 -9 25 -14 53 -31 63 -37z m2338 39 l31 -15 -54 -34 c-29 -19
-62 -34 -73 -34 -19 0 -55 20 -55 32 0 6 101 66 113 67 4 0 22 -7 38 -16z
m-2360 -153 l31 -19 -62 -36 c-59 -35 -62 -36 -92 -20 -21 11 -27 19 -20 26 8
8 101 66 109 67 2 1 17 -8 34 -18z m2336 -13 c60 -32 67 -42 53 -78 -2 -3 -2
-8 -1 -12 0 -5 -5 -8 -11 -9 -7 0 -25 -2 -39 -3 -19 -1 -26 3 -24 14 2 19 -10
30 -62 60 l-43 24 28 18 c15 10 29 18 32 18 3 0 33 -14 67 -32z m-2187 -73
c17 -9 30 -17 30 -20 0 -2 -27 -20 -60 -39 l-60 -36 -31 19 -31 19 23 15 c13
7 40 24 59 35 42 26 35 25 70 7z m2028 -12 c75 -42 77 -45 50 -59 -36 -20 -59
-16 -117 20 l-54 34 29 15 c38 21 38 21 92 -10z m-2569 -6 c-2 -2 -50 -30
-106 -62 -70 -40 -103 -65 -103 -77 0 -19 -40 -34 -66 -24 -27 10 -12 41 22
44 18 2 80 32 140 67 60 35 110 62 113 59 2 -2 2 -5 0 -7z m3180 -146 c112
-65 203 -111 223 -113 38 -4 51 -33 19 -43 -29 -9 -61 3 -61 23 0 12 -61 52
-188 124 -103 60 -194 113 -202 119 -44 32 37 -10 209 -110z m-3114 93 c-11
-8 -74 -46 -140 -83 -112 -64 -128 -70 -239 -91 -117 -21 -120 -23 -281 -117
-97 -57 -165 -104 -168 -115 -7 -23 -65 -25 -74 -2 -7 20 14 34 47 32 16 -1
87 35 190 94 162 95 167 97 282 118 111 21 124 26 255 101 136 78 168 93 128
63z m2384 -42 l44 -26 -23 -18 c-12 -10 -29 -18 -37 -18 -18 0 -123 62 -123
72 0 4 12 14 27 22 30 15 30 15 112 -32z m-1750 22 l23 -17 -58 -33 c-69 -39
-74 -40 -105 -16 l-22 19 54 30 c64 36 77 38 108 17z m2504 -145 c144 -84 348
-202 452 -262 119 -70 205 -113 229 -116 45 -7 57 -25 27 -40 -25 -14 -68 1
-73 24 -2 10 -196 127 -463 281 -253 146 -462 268 -465 271 -14 17 54 -20 293
-158z m-3058 132 c-6 -5 -78 -48 -162 -96 -105 -60 -158 -85 -175 -82 -23 4
-23 4 2 6 14 1 93 42 175 91 135 80 187 107 160 81z m2955 -132 l226 -131 59
-106 60 -106 180 -103 c98 -57 188 -103 200 -103 30 0 49 -16 42 -34 -11 -28
-77 -17 -77 13 0 11 -52 46 -152 104 -84 48 -166 95 -181 104 -18 11 -51 57
-87 122 l-57 104 -199 114 c-224 129 -263 153 -250 153 5 0 111 -59 236 -131z
m-94 -14 c109 -64 204 -119 209 -123 6 -4 33 -55 60 -115 l49 -107 106 -62
c58 -34 121 -64 140 -67 40 -7 53 -36 21 -46 -24 -7 -61 10 -61 30 0 7 -50 42
-111 77 l-112 64 -49 110 -48 109 -189 108 c-180 103 -233 136 -220 137 3 0
96 -52 205 -115z m-2781 91 c-11 -7 -78 -47 -150 -88 -444 -255 -480 -277
-477 -293 4 -21 -43 -38 -69 -25 -34 19 -22 38 28 44 29 3 54 17 453 250 118
69 219 126 225 126 5 0 1 -6 -10 -14z m2053 -32 l65 -36 -32 -21 c-35 -22 -40
-21 -125 31 l-38 24 28 18 c16 10 31 19 33 19 2 1 33 -15 69 -35z m-1433 14
c14 -6 25 -14 25 -17 0 -4 -27 -21 -60 -39 -58 -32 -60 -33 -91 -16 l-32 16
34 21 c19 11 43 26 54 33 25 16 38 17 70 2z m-525 -25 c0 -5 -23 -21 -51 -37
l-51 -28 6 -47 c3 -25 7 -68 8 -94 l3 -48 -192 -112 c-134 -77 -193 -116 -193
-128 0 -21 -32 -33 -61 -24 -30 10 -20 39 16 43 25 3 341 175 398 217 13 9 14
26 10 93 -3 45 -9 82 -14 82 -4 0 -110 -61 -236 -136 -125 -75 -238 -141 -250
-147 -12 -5 -23 -19 -25 -31 -4 -28 -65 -36 -75 -11 -7 20 12 34 47 35 14 0
163 84 340 190 173 104 316 190 318 190 1 0 2 -3 2 -7z m690 -73 c0 -3 -26
-20 -57 -38 -56 -33 -58 -33 -91 -17 -19 9 -33 17 -31 19 2 2 31 19 63 39 57
33 60 34 88 18 15 -9 28 -18 28 -21z m1130 4 c33 -19 58 -39 55 -43 -2 -5 -18
-14 -34 -21 -28 -11 -35 -9 -92 26 l-62 37 34 18 c19 10 35 18 36 19 1 0 29
-16 63 -36z m-2380 -24 c-14 -4 -36 -8 -50 -8 -22 0 -22 1 5 8 17 4 39 8 50 8
16 0 15 -2 -5 -8z m-87 -17 c-7 -2 -19 -2 -25 0 -7 3 -2 5 12 5 14 0 19 -2 13
-5z m-58 -10 c-31 -8 -454 -257 -449 -265 7 -10 -26 -38 -44 -38 -27 0 -45 17
-39 34 4 9 18 16 34 16 25 0 99 40 373 199 58 34 114 60 125 60 20 -1 20 -1 0
-6z m3097 -105 c106 -61 205 -112 221 -113 59 -4 61 -45 1 -45 -30 0 -38 7
-36 31 0 3 -77 50 -171 104 -226 130 -234 135 -220 135 6 0 98 -50 205 -112z
m-1552 64 c0 -4 -25 -22 -56 -41 -56 -33 -57 -33 -91 -17 -20 9 -34 18 -32 20
2 2 31 20 64 39 56 33 61 34 87 21 16 -8 28 -18 28 -22z m827 2 c35 -19 61
-39 58 -43 -2 -5 -17 -14 -33 -20 -26 -11 -35 -8 -91 25 l-62 37 28 18 c15 11
30 19 32 19 2 0 33 -16 68 -36z m585 -51 c66 -39 129 -69 152 -73 46 -6 57
-24 25 -40 -25 -14 -69 1 -69 23 0 7 -46 40 -102 72 -124 71 -146 85 -131 85
6 0 62 -30 125 -67z m90 -128 c162 -94 260 -145 278 -145 36 0 47 -17 26 -38
-12 -13 -22 -14 -43 -6 -16 6 -28 17 -27 25 1 9 -94 69 -257 163 -231 133
-293 171 -243 152 8 -3 128 -71 266 -151z m-1370 107 l28 -18 -64 -36 c-58
-32 -65 -34 -90 -21 -14 7 -26 18 -26 22 0 10 98 70 115 70 6 1 22 -7 37 -17z
m550 -14 c68 -40 65 -37 48 -49 -36 -23 -60 -20 -121 14 l-62 35 29 16 c40 21
47 20 106 -16z m-1042 -22 c0 -2 -115 -71 -256 -153 -175 -101 -259 -155 -265
-170 -10 -27 -59 -32 -78 -9 -10 12 -8 17 8 25 11 6 30 11 43 11 13 0 138 68
278 150 239 140 270 156 270 146z m934 -92 c18 -12 17 -14 -16 -30 -36 -17
-36 -16 -92 15 -31 18 -56 36 -56 39 0 4 12 15 27 24 26 16 29 15 73 -10 25
-14 54 -31 64 -38z m-878 48 c-3 -5 -55 -38 -115 -73 -71 -41 -111 -70 -111
-81 0 -20 -33 -32 -66 -24 -45 12 -24 46 29 46 12 0 74 31 137 69 112 68 136
80 126 63z m584 -7 c17 -9 30 -18 30 -20 0 -3 -28 -19 -61 -36 -54 -27 -65
-29 -90 -19 -16 7 -29 16 -29 20 0 9 99 69 113 70 4 0 21 -7 37 -15z m-525
-24 c-3 -6 -89 -58 -191 -117 -103 -60 -189 -115 -192 -123 -3 -9 -10 -19 -16
-23 -17 -12 -64 -9 -72 4 -9 14 23 38 53 38 13 0 112 52 220 115 109 63 199
115 201 115 2 0 1 -4 -3 -9z m1066 -143 l59 -31 158 7 157 6 165 -96 c203
-118 238 -136 250 -129 12 7 50 -12 50 -25 0 -31 -80 -32 -80 -1 0 10 -70 55
-199 129 l-198 113 -142 -8 -143 -8 258 -145 c142 -80 270 -145 284 -146 15
-1 32 -4 39 -8 16 -10 14 -33 -5 -40 -24 -9 -64 4 -64 23 0 10 -58 48 -168
109 -324 180 -482 268 -488 275 -15 15 11 5 67 -25z m165 -199 c162 -94 307
-175 322 -179 15 -5 41 -12 57 -17 44 -12 39 -37 -8 -41 -31 -3 -39 0 -44 17
-4 17 -129 92 -610 369 -43 24 -58 40 -27 28 8 -3 148 -83 310 -177z m-966
142 c-25 -15 -117 -70 -205 -121 -149 -86 -165 -93 -249 -107 -49 -8 -96 -12
-105 -11 -9 2 27 10 79 17 93 13 98 15 269 113 95 55 188 108 205 119 17 10
36 19 41 19 6 0 -10 -13 -35 -29z m85 -17 c-11 -8 -113 -69 -227 -135 l-206
-120 -186 -36 -186 -36 -180 -104 c-99 -57 -180 -111 -180 -118 0 -17 -34 -28
-60 -20 -41 13 -17 45 35 45 12 0 103 47 201 104 l179 103 175 33 c96 18 191
41 210 50 19 10 125 70 235 134 189 110 235 135 190 100z m636 -83 l152 -88
43 -73 42 -73 214 -124 c120 -69 224 -123 239 -123 31 0 64 -23 55 -38 -8 -13
-55 -16 -72 -4 -6 4 -13 14 -16 22 -3 8 -102 70 -220 138 l-214 122 -43 74
c-42 71 -49 77 -145 132 -166 96 -212 124 -199 124 6 0 80 -40 164 -89z m-581
55 c-8 -7 -177 -107 -375 -221 -198 -115 -399 -231 -447 -259 -48 -27 -89 -58
-91 -68 -6 -23 -30 -32 -62 -24 -46 12 -25 46 29 46 12 0 84 37 161 81 77 45
241 140 365 212 124 71 268 156 320 188 94 56 128 72 100 45z m496 -83 c135
-78 136 -78 175 -148 l40 -70 167 -97 c92 -53 180 -98 197 -100 36 -4 46 -33
16 -43 -29 -9 -61 3 -61 24 0 11 -53 47 -167 114 l-168 96 -39 70 c-38 68 -39
69 -172 146 -121 70 -145 85 -129 85 3 0 66 -35 141 -77z m-440 58 c-3 -4 -91
-57 -195 -117 -124 -71 -190 -115 -191 -125 0 -27 -71 -42 -85 -19 -11 17 15
40 46 40 17 0 101 42 226 115 109 63 199 115 201 115 2 0 1 -4 -2 -9z m334
-91 c58 -33 115 -60 127 -60 53 0 74 -34 28 -46 -32 -8 -56 1 -62 24 -2 10
-46 41 -96 70 -111 62 -125 72 -112 72 6 0 57 -27 115 -60z m-1190 -97 c-73
-12 -100 -22 -195 -77 -60 -35 -110 -69 -110 -76 0 -20 -30 -34 -58 -26 -48
12 -28 46 26 46 12 0 69 28 127 62 104 61 183 87 265 86 17 0 -8 -7 -55 -15z"/>
<path d="M7524 6335 c-218 -47 -386 -229 -449 -485 -23 -95 -27 -120 -17 -120
5 0 50 33 100 73 50 39 127 94 171 121 154 93 382 170 541 183 41 3 82 9 90
13 16 8 242 -12 322 -28 31 -6 45 -6 42 0 -8 13 -154 108 -166 108 -5 0 -43
-16 -85 -35 -42 -19 -78 -33 -81 -30 -3 3 30 21 74 42 l79 36 -84 39 c-46 22
-124 51 -173 65 -97 27 -144 25 -135 -6 3 -14 0 -17 -14 -14 -12 3 -19 0 -19
-8 -1 -9 -4 -8 -11 4 -9 15 -13 16 -26 5 -14 -11 -15 -10 -9 10 5 15 3 22 -6
22 -10 0 -9 3 2 10 22 14 -72 11 -146 -5z"/>
<path d="M8410 6264 c-48 -6 -180 -34 -209 -46 -24 -9 -22 -11 41 -52 36 -24
81 -55 100 -68 18 -14 46 -29 62 -32 42 -10 199 -73 266 -105 32 -16 89 -33
139 -40 46 -7 113 -21 148 -32 36 -11 67 -18 69 -16 3 2 -13 37 -33 78 -72
140 -206 251 -354 293 -58 16 -173 26 -229 20z"/>
<path d="M8797 5883 c88 -60 161 -119 226 -186 37 -39 67 -68 67 -65 0 16 -22
120 -35 163 -13 47 -17 52 -62 68 -64 22 -171 47 -208 47 l-29 0 41 -27z"/>
<path d="M9075 5779 c8 -29 17 -77 21 -108 5 -47 18 -73 79 -166 40 -60 82
-130 93 -156 14 -31 40 -60 81 -93 l61 -47 0 78 c-1 167 -57 310 -165 419 -49
49 -156 124 -178 124 -3 0 1 -23 8 -51z"/>
<path d="M6905 5689 c-334 -94 -524 -365 -476 -679 18 -119 18 -118 66 -22 25
48 68 114 97 148 50 57 140 142 171 161 7 4 35 49 61 98 26 50 76 130 112 178
67 89 86 138 55 136 -9 0 -47 -9 -86 -20z m-209 -290 c10 -17 -13 -36 -27 -22
-12 12 -4 33 11 33 5 0 12 -5 16 -11z"/>
<path d="M6661 5184 c-91 -93 -151 -182 -182 -271 -17 -51 -17 -55 0 -106 10
-28 33 -81 50 -116 l33 -64 47 96 c37 73 50 110 55 163 10 94 39 225 70 309
14 38 23 71 20 74 -2 3 -44 -35 -93 -85z"/>
<path d="M9326 5208 c13 -35 29 -81 35 -103 10 -35 12 -37 19 -19 5 12 11 41
15 65 6 43 5 45 -39 82 -25 20 -47 37 -50 37 -2 0 7 -28 20 -62z"/>
<path d="M9398 5100 c-14 -58 -15 -82 -6 -132 8 -47 8 -66 -1 -81 -7 -10 -8
-16 -3 -13 15 9 19 -22 21 -141 2 -125 -16 -257 -54 -387 -14 -50 -25 -105
-23 -123 l3 -33 53 51 c32 30 51 57 48 65 -3 8 -1 14 5 14 6 0 6 6 0 18 -8 16
-6 18 20 16 27 -2 35 5 65 52 112 175 124 385 34 570 -29 59 -125 194 -139
194 -3 0 -14 -32 -23 -70z"/>
<path d="M8897 4909 c7 -9 9 -20 5 -25 -4 -4 1 -2 11 5 9 7 17 16 17 19 0 3
-3 2 -7 -1 -3 -4 -13 -1 -22 6 -14 10 -14 10 -4 -4z"/>
<path d="M8557 4903 c-4 -3 -7 -11 -7 -17 0 -6 5 -5 12 2 6 6 9 14 7 17 -3 3
-9 2 -12 -2z"/>
<path d="M9220 4855 c-7 -9 -8 -15 -2 -15 5 0 12 7 16 15 3 8 4 15 2 15 -2 0
-9 -7 -16 -15z"/>
<path d="M9312 4850 c-7 -11 -8 -20 -3 -20 9 0 24 30 18 36 -1 2 -8 -6 -15
-16z"/>
<path d="M9060 4853 c0 -6 8 -17 18 -24 16 -13 16 -13 2 6 -8 11 -16 22 -17
24 -2 2 -3 0 -3 -6z"/>
<path d="M7567 4833 c-4 -3 -7 -11 -7 -17 0 -6 5 -5 12 2 6 6 9 14 7 17 -3 3
-9 2 -12 -2z"/>
<path d="M9330 4829 c0 -5 5 -7 10 -4 6 3 10 8 10 11 0 2 -4 4 -10 4 -5 0 -10
-5 -10 -11z"/>
<path d="M9246 4813 c-6 -14 -5 -15 5 -6 7 7 10 15 7 18 -3 3 -9 -2 -12 -12z"/>
<path d="M6451 4735 c-1 -96 7 -122 34 -112 13 6 15 3 10 -13 -4 -13 -2 -20 6
-20 10 0 10 -3 2 -11 -6 -6 -9 -18 -6 -27 4 -10 2 -13 -5 -8 -16 10 -15 3 4
-42 l16 -37 20 65 c10 36 19 70 20 75 0 6 -23 57 -50 115 l-51 105 0 -90z"/>
<path d="M9082 4791 c8 -14 20 -26 27 -27 7 -2 7 0 1 3 -7 3 -7 10 2 21 10 14
10 15 -2 5 -11 -10 -16 -9 -28 5 -12 15 -12 14 0 -7z"/>
<path d="M9310 4800 c0 -5 5 -10 10 -10 6 0 10 5 10 10 0 6 -4 10 -10 10 -5 0
-10 -4 -10 -10z"/>
<path d="M9200 4797 c0 -2 6 -10 14 -16 11 -9 16 -9 22 1 4 7 4 10 -1 6 -4 -4
-14 -3 -22 3 -7 6 -13 9 -13 6z"/>
<path d="M7171 4774 c0 -11 3 -14 6 -6 3 7 2 16 -1 19 -3 4 -6 -2 -5 -13z"/>
<path d="M6609 4694 l-41 -85 53 -80 c28 -44 55 -82 59 -84 4 -2 1 26 -6 63
-7 37 -14 113 -16 170 -2 56 -4 102 -6 102 -2 0 -21 -39 -43 -86z"/>
<path d="M8460 4776 c0 -2 7 -7 16 -10 8 -3 12 -2 9 4 -6 10 -25 14 -25 6z"/>
<path d="M8982 4760 c-18 -29 -15 -38 4 -12 9 13 14 25 12 27 -2 2 -9 -5 -16
-15z"/>
<path d="M9030 4771 c0 -5 7 -11 14 -14 10 -4 13 -1 9 9 -6 15 -23 19 -23 5z"/>
<path d="M8867 4763 c-4 -3 -7 -11 -7 -17 0 -6 5 -5 12 2 6 6 9 14 7 17 -3 3
-9 2 -12 -2z"/>
<path d="M9005 4750 c-3 -5 1 -10 10 -10 9 0 13 5 10 10 -3 6 -8 10 -10 10 -2
0 -7 -4 -10 -10z"/>
<path d="M9250 4732 c-8 -9 -28 -34 -44 -56 l-28 -39 28 -58 c16 -33 33 -59
37 -59 5 0 5 -4 2 -10 -3 -5 -1 -10 5 -10 6 0 9 -4 6 -9 -6 -9 33 -106 39 -99
11 11 53 161 49 172 -3 8 -1 17 5 21 13 7 15 65 3 65 -5 0 -14 10 -21 23 l-12
22 5 -22 c7 -38 -8 -34 -28 8 -11 21 -23 39 -27 39 -5 0 -6 7 -3 15 8 19 3 18
-16 -3z m6 -28 c-5 -12 -2 -15 10 -10 12 5 14 1 8 -17 -4 -12 -7 -31 -7 -42 1
-11 -1 -14 -4 -7 -3 6 -9 9 -14 6 -6 -3 -5 -12 3 -22 11 -13 11 -14 -2 -10 -8
3 -15 13 -15 24 -1 10 -4 25 -9 32 -5 8 -3 24 5 38 14 27 35 33 25 8z m-59
-76 c-3 -8 -6 -5 -6 6 -1 11 2 17 5 13 3 -3 4 -12 1 -19z"/>
<path d="M8757 4726 c-11 -11 -17 -12 -26 -3 -8 8 -11 8 -11 -1 0 -20 28 -25
45 -8 20 20 23 20 42 1 8 -9 18 -13 21 -10 7 7 -29 34 -45 35 -6 0 -18 -6 -26
-14z"/>
<path d="M8520 4722 c0 -4 10 -9 22 -9 18 -2 20 0 8 7 -18 12 -30 13 -30 2z"/>
<path d="M8880 4723 c0 -5 10 -19 21 -33 11 -14 18 -19 14 -12 -3 6 0 12 7 12
7 1 3 6 -10 13 -12 7 -19 16 -16 20 4 4 2 7 -4 7 -7 0 -12 -3 -12 -7z"/>
<path d="M9124 4708 c19 -30 28 -35 24 -17 -2 6 2 13 9 16 7 3 10 -5 9 -21 -4
-32 -2 -32 19 0 9 15 12 24 7 20 -6 -3 -14 -1 -17 5 -4 5 -14 8 -22 5 -9 -4
-23 -1 -31 6 -12 10 -11 6 2 -14z"/>
<path d="M9331 4720 c0 -8 4 -22 9 -30 12 -18 12 -2 0 25 -6 13 -9 15 -9 5z"/>
<path d="M7268 4713 c7 -3 16 -2 19 1 4 3 -2 6 -13 5 -11 0 -14 -3 -6 -6z"/>
<path d="M7318 4713 c6 -2 18 -2 25 0 6 3 1 5 -13 5 -14 0 -19 -2 -12 -5z"/>
<path d="M8570 4700 c0 -5 5 -10 11 -10 5 0 7 5 4 10 -3 6 -8 10 -11 10 -2 0
-4 -4 -4 -10z"/>
<path d="M8788 4689 c19 -11 27 -27 23 -51 0 -5 4 -8 9 -8 6 0 8 11 4 28 -8
33 -4 28 -34 36 -25 6 -25 6 -2 -5z"/>
<path d="M7205 4680 c-3 -5 -1 -10 4 -10 6 0 11 5 11 10 0 6 -2 10 -4 10 -3 0
-8 -4 -11 -10z"/>
<path d="M8495 4679 c-4 -6 -5 -13 -2 -16 7 -7 27 6 27 18 0 12 -17 12 -25 -2z"/>
<path d="M8527 4670 c-3 -13 1 -21 14 -25 42 -14 14 -25 -61 -25 l-80 0 0 -50
c0 -27 3 -50 8 -51 4 0 31 -2 61 -2 46 -2 55 1 71 23 23 34 33 99 16 106 -8 3
-12 14 -9 25 3 10 1 19 -5 19 -5 0 -12 -9 -15 -20z m-47 -120 c18 -12 2 -12
-25 0 -13 6 -15 9 -5 9 8 0 22 -4 30 -9z m40 -10 c-8 -5 -17 -7 -19 -4 -3 3 1
9 9 14 8 5 17 7 19 4 3 -3 -1 -9 -9 -14z"/>
<path d="M8447 4664 c-16 -9 -26 -18 -23 -21 3 -3 11 -1 19 5 8 7 18 7 27 2 8
-6 22 -9 30 -9 8 0 5 4 -8 10 -13 5 -20 13 -17 19 8 13 6 12 -28 -6z"/>
<path d="M9116 4661 c-3 -5 0 -12 6 -15 10 -5 10 -7 1 -12 -7 -3 -13 -13 -13
-22 0 -12 -3 -13 -8 -5 -5 7 -12 -2 -19 -25 l-11 -36 29 34 c16 19 33 40 38
46 5 6 3 17 -4 28 -8 10 -16 13 -19 7z"/>
<path d="M7201 4648 c-1 -10 -7 -16 -13 -14 -7 1 -10 1 -5 -1 4 -3 7 -12 8
-21 0 -11 4 -9 10 7 5 13 8 29 5 35 -2 6 -5 3 -5 -6z"/>
<path d="M6772 4620 c0 -14 2 -19 5 -12 2 6 2 18 0 25 -3 6 -5 1 -5 -13z"/>
<path d="M6816 4625 c-9 -26 -7 -32 5 -12 6 10 9 21 6 23 -2 3 -7 -2 -11 -11z"/>
<path d="M6842 4628 c-7 -7 -12 -20 -12 -29 0 -10 -5 -21 -10 -24 -7 -4 -7
-12 0 -25 13 -24 13 -50 0 -50 -5 0 -10 14 -10 30 0 17 -5 30 -10 30 -6 0 -8
12 -5 28 l5 27 -10 -25 c-12 -26 -7 -91 12 -150 15 -49 57 -112 68 -105 6 4
29 -33 53 -82 85 -173 134 -243 170 -243 5 0 20 -11 32 -24 16 -17 65 -38 154
-67 73 -23 135 -39 138 -35 13 12 -49 64 -84 71 -42 8 -73 25 -73 41 0 6 -7
18 -16 25 -14 12 -16 10 -12 -16 2 -22 -1 -30 -12 -30 -11 0 -14 9 -12 37 1
20 -2 39 -8 43 -5 3 -10 -1 -10 -9 0 -9 -4 -16 -10 -16 -19 0 -25 -2 -37 -11
-8 -7 -27 0 -60 24 -45 32 -48 37 -54 88 -7 68 -23 101 -60 123 -34 20 -35 29
-9 81 18 35 18 41 5 54 -13 13 -17 13 -33 -2 -23 -21 -52 -22 -52 -1 0 9 -5
12 -12 8 -7 -4 -10 -4 -6 1 4 4 2 17 -4 28 -14 26 -19 163 -7 194 10 26 8 28
-9 11z"/>
<path d="M6870 4619 c-7 -11 -10 -23 -7 -25 2 -2 9 7 15 21 14 30 7 33 -8 4z"/>
<path d="M6947 4634 c-10 -10 2 -24 21 -24 9 1 31 7 47 14 l30 13 -32 -1 c-17
-1 -29 -4 -26 -8 2 -5 -5 -8 -17 -8 -12 0 -18 5 -15 10 7 11 2 13 -8 4z"/>
<path d="M7137 4606 c-13 -10 -15 -15 -5 -18 25 -9 -17 -38 -46 -32 -25 4 -26
3 -16 -16 10 -19 16 -53 19 -114 1 -15 4 -16 16 -6 18 15 21 65 3 54 -6 -4 -4
3 5 17 9 13 17 31 17 39 0 9 11 27 24 39 14 13 22 29 19 37 -6 17 -13 17 -36
0z m-40 -98 c-3 -8 -6 -5 -6 6 -1 11 2 17 5 13 3 -3 4 -12 1 -19z"/>
<path d="M9145 4599 c-4 -5 -4 -13 -1 -16 3 -4 6 -1 6 6 0 7 9 3 21 -10 19
-23 20 -23 10 -2 -14 28 -28 36 -36 22z"/>
<path d="M7016 4586 c10 -8 21 -12 24 -10 5 6 -21 24 -34 24 -6 0 -1 -6 10
-14z"/>
<path d="M6550 4548 c-32 -105 -32 -102 20 -176 44 -63 198 -217 208 -208 2 2
-3 17 -11 33 -8 15 -27 66 -42 112 -19 57 -48 114 -92 180 -36 53 -66 97 -68
99 -1 1 -8 -17 -15 -40z"/>
<path d="M8631 4543 c-38 -19 -74 -46 -81 -59 -16 -30 -46 -31 -61 -3 -14 27
-22 17 -38 -46 -15 -62 -55 -142 -87 -175 -13 -14 -30 -47 -38 -73 -8 -26 -25
-60 -40 -77 -21 -26 -24 -35 -15 -57 6 -15 7 -51 3 -81 l-7 -55 59 33 c98 55
228 134 242 148 8 6 22 17 33 23 24 12 137 185 168 254 24 54 26 64 9 47 -20
-20 -32 -13 -13 8 17 19 17 20 -1 21 -16 0 -15 2 5 10 28 11 24 18 -11 21 -17
1 -24 7 -20 16 2 7 8 10 11 5 9 -12 31 -15 31 -4 0 5 -11 18 -25 29 -14 11
-24 26 -23 32 6 24 -35 18 -101 -17z m4 -43 c-3 -5 -12 -10 -18 -10 -7 0 -6 4
3 10 19 12 23 12 15 0z"/>
<path d="M9000 4563 c-8 -3 -18 -11 -22 -17 -5 -8 -8 -7 -8 2 0 18 -27 15 -34
-4 -3 -9 -6 -18 -6 -20 0 -10 38 -3 58 12 13 9 22 11 22 4 0 -6 -13 -19 -30
-28 -16 -9 -30 -20 -30 -24 0 -4 -6 -5 -14 -2 -8 3 -17 0 -22 -7 -5 -9 -2 -10
9 -6 8 3 21 -1 28 -9 9 -12 9 -13 -2 -9 -8 3 -23 -1 -34 -9 -19 -14 -19 -15
-1 -35 14 -15 21 -17 31 -8 7 7 11 15 9 18 -2 3 8 12 22 19 14 8 22 20 19 27
-2 8 -1 12 4 9 4 -3 21 9 37 26 16 17 23 28 17 24 -9 -5 -13 1 -13 18 0 26
-10 30 -40 19z m-63 -138 c0 -11 -4 -12 -14 -4 -7 6 -13 13 -13 15 0 2 6 4 13
4 8 0 14 -7 14 -15z"/>
<path d="M9095 4539 c-10 -10 -16 -19 -12 -19 3 0 -14 -20 -38 -44 -24 -25
-40 -47 -37 -50 3 -3 1 -6 -5 -6 -5 0 -25 -13 -43 -30 -18 -16 -30 -30 -25
-30 5 0 -2 -8 -15 -17 -14 -10 -78 -61 -143 -115 -65 -54 -122 -98 -126 -98
-4 0 -36 -37 -71 -82 -35 -46 -91 -111 -124 -146 -32 -34 -57 -64 -54 -67 7
-7 162 20 275 49 135 34 277 86 383 140 138 70 181 100 196 137 41 110 44 121
35 136 -7 14 -10 13 -16 -6 -8 -26 -25 -18 -25 11 0 12 -11 36 -26 55 -14 18
-30 48 -35 66 -16 49 -31 79 -55 109 -22 27 -22 27 -39 7z"/>
<path d="M6514 4395 c-4 -9 -4 -67 -1 -128 8 -176 64 -299 183 -405 48 -43
190 -129 199 -120 2 1 -7 41 -21 87 -13 46 -27 116 -30 155 -7 78 -37 143 -79
170 -47 31 -159 142 -202 200 -33 45 -44 54 -49 41z"/>
<path d="M8860 4390 c0 -21 -2 -22 -10 -8 -10 15 -50 15 -50 -1 0 -4 -29 -54
-65 -110 l-66 -103 60 46 c33 26 84 68 112 94 l52 48 -16 29 c-16 30 -16 30
-17 5z"/>
<path d="M8880 4403 c0 -5 7 -16 14 -26 11 -14 15 -15 19 -4 3 7 -4 19 -14 25
-10 7 -19 9 -19 5z"/>
<path d="M9260 4370 c0 -11 4 -20 9 -20 5 0 7 9 4 20 -3 11 -7 20 -9 20 -2 0
-4 -9 -4 -20z"/>
<path d="M7048 4344 c13 -9 34 -33 47 -54 13 -20 33 -40 45 -43 18 -5 16 0
-12 30 -18 20 -43 46 -55 59 -12 13 -28 24 -35 24 -7 0 -2 -7 10 -16z"/>
<path d="M7106 4206 c21 -15 30 -14 19 3 -3 6 -14 11 -23 11 -13 0 -13 -2 4
-14z"/>
<path d="M7190 4206 c0 -10 -7 -12 -22 -9 -23 5 -23 5 -3 -10 11 -8 36 -18 55
-22 l35 -7 -29 31 c-34 35 -36 36 -36 17z"/>
<path d="M9307 4204 c-4 -4 -7 -14 -7 -23 0 -11 3 -12 11 -4 6 6 10 16 7 23
-2 6 -7 8 -11 4z"/>
<path d="M9309 4155 c-4 -5 -10 -41 -14 -80 -9 -85 -47 -220 -84 -297 -21 -45
-23 -54 -9 -41 29 26 95 166 108 226 11 55 10 210 -1 192z"/>
<path d="M9267 4118 c-7 -13 -31 -52 -52 -88 -50 -86 -115 -173 -123 -165 -4
3 -2 9 4 13 20 14 124 187 124 206 0 3 -22 -8 -48 -24 -97 -60 -366 -167 -466
-185 l-36 -7 22 -18 c17 -14 26 -15 40 -7 13 9 21 8 30 -1 9 -9 7 -19 -11 -43
-20 -27 -21 -33 -9 -40 25 -14 43 -66 28 -84 -6 -8 -9 -19 -5 -24 6 -10 0 -17
-64 -74 -17 -16 -31 -34 -31 -40 0 -7 -15 -23 -33 -36 l-32 -23 70 6 c150 14
348 86 417 150 92 87 166 264 193 459 7 52 2 58 -18 25z"/>
<path d="M8523 4045 c-28 -19 -94 -57 -147 -86 -53 -28 -96 -54 -96 -58 0 -4
17 -24 38 -44 l38 -38 72 78 c69 76 157 183 150 183 -2 0 -26 -16 -55 -35z"/>
<path d="M6851 4018 c-2 -19 32 -171 50 -225 19 -60 22 -62 67 -77 50 -15 144
-36 166 -36 8 0 -20 33 -61 73 -65 62 -144 158 -205 247 -9 14 -17 22 -17 18z"/>
<path d="M7133 3910 c-3 -19 -13 -40 -21 -46 -14 -10 -12 -17 13 -59 15 -26
47 -68 70 -91 l42 -44 74 0 c70 0 214 13 287 25 17 3 32 12 32 19 0 26 -84
107 -120 116 -19 5 -62 18 -95 29 -33 11 -108 35 -167 53 l-108 34 -7 -36z"/>
<path d="M8530 3838 c-58 -11 -118 -23 -135 -27 l-30 -8 44 -21 c44 -20 45
-20 93 -1 27 10 57 19 66 19 10 0 33 13 52 30 19 16 31 29 25 28 -5 0 -57 -9
-115 -20z"/>
<path d="M6940 3703 c0 -29 104 -168 154 -207 30 -22 37 -24 65 -13 26 10 33
9 48 -6 17 -17 17 -19 0 -32 -18 -13 -18 -14 2 -24 29 -16 39 -13 17 4 -34 26
-6 16 53 -17 53 -31 63 -33 172 -36 93 -3 133 0 195 16 118 30 196 62 201 82
3 10 15 23 27 30 27 14 60 66 51 80 -3 6 -18 10 -32 10 -14 0 -41 9 -59 21
-18 11 -48 21 -67 22 -19 1 -41 7 -48 13 -40 32 -76 43 -115 34 -59 -14 -322
-33 -336 -24 -17 9 -9 1 67 -67 33 -30 74 -64 90 -77 57 -44 -63 21 -161 87
-76 50 -101 62 -160 71 -38 7 -90 18 -116 25 -27 8 -48 11 -48 8z"/>
<path d="M8945 3536 c-64 -30 -165 -55 -261 -65 -95 -11 -107 -21 -23 -21 112
0 255 41 331 94 31 22 12 19 -47 -8z"/>
<path d="M7835 3430 c-3 -5 1 -10 9 -10 9 0 16 5 16 10 0 6 -4 10 -9 10 -6 0
-13 -4 -16 -10z"/>
<path d="M720 4285 l0 -76 71 3 c65 3 74 6 92 30 23 30 18 67 -13 98 -16 16
-34 20 -85 20 l-65 0 0 -75z"/>
<path d="M722 4023 l3 -78 88 1 c76 1 91 4 109 22 31 30 28 79 -6 109 -24 20
-37 23 -112 23 l-85 0 3 -77z"/>
<path d="M2380 4155 c0 -178 2 -206 16 -212 8 -3 45 -1 81 5 114 19 176 92
176 207 0 66 -15 104 -60 149 -39 40 -83 56 -153 56 l-60 0 0 -205z"/>
<path d="M3064 4198 l-51 -133 100 -3 c55 -1 101 -1 103 1 5 5 -85 248 -95
260 -4 4 -30 -52 -57 -125z"/>
<path d="M4114 4198 l-51 -133 100 -3 c55 -1 101 -1 103 1 5 5 -85 248 -95
260 -4 4 -30 -52 -57 -125z"/>
<path d="M710 3300 l0 -70 70 0 c62 0 74 3 95 25 30 30 31 54 4 89 -19 24 -26
26 -95 26 l-74 0 0 -70z"/>
<path d="M1551 3176 c-72 -40 -65 -160 12 -185 64 -22 117 20 117 92 0 49 -13
73 -50 92 -35 18 -48 18 -79 1z"/>
<path d="M2336 3179 c-47 -37 -35 -49 48 -49 70 0 74 1 69 20 -7 26 -41 50
-69 50 -12 0 -33 -9 -48 -21z"/>
<path d="M4241 3176 c-100 -56 -38 -222 69 -184 38 13 50 35 50 92 0 59 -7 74
-41 91 -34 18 -47 18 -78 1z"/>
<path d="M8806 2809 c-15 -9 -16 -13 -5 -20 20 -12 31 -11 23 3 -5 8 -2 9 9 5
9 -3 19 -2 22 2 3 5 -2 12 -11 15 -19 7 -15 8 -38 -5z"/>
<path d="M8056 2681 c-3 -5 -22 -16 -41 -25 -20 -10 -33 -22 -29 -27 3 -6 0
-10 -7 -8 -28 3 -40 -1 -33 -13 5 -7 2 -9 -9 -5 -11 4 -15 1 -14 -12 1 -15 9
-12 56 17 31 18 55 37 54 41 -3 14 42 4 85 -18 42 -22 71 -12 30 10 -13 7 -37
20 -55 30 -18 10 -35 14 -37 10z"/>
<path d="M8183 2605 c0 -8 4 -15 9 -15 4 0 8 4 8 9 0 6 -4 12 -8 15 -5 3 -9
-1 -9 -9z"/>
<path d="M8750 2588 c0 -15 5 -19 18 -14 12 4 11 1 -5 -13 -21 -17 -21 -31 -1
-31 5 0 6 4 3 10 -3 5 2 9 12 8 10 0 29 0 43 1 23 1 23 2 6 12 -14 9 -21 8
-28 -2 -7 -10 -8 -9 -4 6 4 15 -1 23 -19 32 -22 10 -25 9 -25 -9z"/>
<path d="M7885 2580 c-3 -6 1 -7 9 -4 18 7 21 14 7 14 -6 0 -13 -4 -16 -10z"/>
<path d="M7595 2570 c-3 -5 -1 -10 6 -10 8 0 7 -5 -2 -17 -12 -14 -9 -13 16 2
39 24 44 30 23 22 -10 -4 -18 -2 -18 3 0 13 -17 13 -25 0z"/>
<path d="M8874 2525 c14 -13 26 -30 26 -37 0 -10 3 -9 9 1 7 11 1 21 -22 38
-40 30 -47 29 -13 -2z"/>
<path d="M8848 2242 c-37 -18 -35 -28 10 -51 l37 -19 -30 -13 c-16 -8 -34 -19
-40 -26 -5 -6 -48 -33 -95 -59 -278 -154 -334 -187 -340 -194 -3 -4 -43 -29
-90 -55 -47 -27 -106 -64 -132 -82 -40 -29 -46 -38 -38 -53 15 -28 13 -29 -25
-25 -31 4 -35 2 -36 -18 l0 -22 -9 21 c-11 29 -29 39 -43 25 -20 -20 -28 -11
-23 24 5 30 3 35 -14 35 -11 0 -17 5 -15 13 3 7 -27 29 -77 56 -46 24 -96 54
-113 65 -42 30 -213 129 -389 224 -34 18 -65 39 -71 45 -5 7 -23 18 -40 25
l-29 13 34 22 c19 11 37 22 40 25 9 7 -33 32 -54 32 -12 0 -58 -22 -104 -49
-61 -36 -79 -51 -70 -58 16 -13 954 -552 972 -559 13 -5 934 523 968 555 16
15 11 19 -70 66 -82 48 -89 50 -114 37z"/>
<path d="M7338 2143 c6 -2 18 -2 25 0 6 3 1 5 -13 5 -14 0 -19 -2 -12 -5z"/>
</g>
</svg>
